<?xml version="1.0" standalone="no"?>
<!DOCTYPE svg PUBLIC "-//W3C//DTD SVG 20010904//EN"
 "http://www.w3.org/TR/2001/REC-SVG-20010904/DTD/svg10.dtd">
<svg version="1.0" xmlns="http://www.w3.org/2000/svg"
 width="625.000000pt" height="625.000000pt" viewBox="0 0 625.000000 625.000000"
 preserveAspectRatio="xMidYMid meet">
<metadata>
Created by potrace 1.11, written by Peter Selinger 2001-2013
</metadata>
<g transform="translate(0.000000,625.000000) scale(0.100000,-0.100000)"
fill="#000000" stroke="none">
<path d="M0 3125 l0 -2025 3125 0 3125 0 0 2025 0 2025 -3125 0 -3125 0 0
-2025z m3174 1182 l99 -32 -279 -134 c-273 -131 -778 -382 -920 -458 l-72 -37
-51 24 c-28 13 -53 22 -55 19 -11 -12 -16 -49 -7 -49 6 0 11 9 11 20 0 11 2
20 5 20 5 0 106 -49 112 -55 3 -2 -18 -119 -22 -123 -1 -2 -28 9 -59 25 l-56
27 5 40 c3 29 2 34 -3 16 -4 -14 -17 -26 -27 -28 -11 -2 -55 -38 -97 -80 -76
-75 -93 -97 -64 -86 30 12 25 -19 -19 -103 -37 -70 -45 -81 -41 -53 5 33 4 33
-6 10 -6 -14 -20 -41 -31 -60 l-19 -35 22 28 c18 22 25 25 37 16 8 -7 13 -8
11 -2 -4 12 73 173 83 173 4 0 12 -14 19 -30 7 -17 15 -29 17 -27 2 3 -4 21
-14 41 l-17 37 69 69 68 69 59 -30 c32 -16 58 -33 58 -38 0 -7 -145 -258 -155
-269 -2 -2 -13 13 -24 35 -11 21 -20 34 -20 28 0 -5 6 -21 14 -35 8 -14 14
-30 15 -36 0 -10 -93 -77 -110 -80 -3 0 -17 -6 -31 -12 -15 -6 -46 -16 -70
-22 -30 -8 -65 -32 -118 -81 -41 -38 -78 -69 -82 -69 -4 0 -5 -10 -3 -22 4
-21 4 -21 -4 -3 -5 11 -7 25 -5 32 7 18 96 88 108 85 5 -2 4 2 -2 9 -10 10 -9
16 4 31 9 10 21 18 26 18 6 0 2 -9 -8 -20 -10 -11 -16 -20 -13 -20 2 0 15 12
29 27 13 14 18 23 12 19 -18 -10 -16 1 8 43 12 22 13 26 2 11 -41 -59 -187
-200 -197 -190 -6 6 16 37 63 89 74 83 91 117 127 256 9 33 40 128 69 211 30
83 57 174 61 203 4 28 9 53 13 55 5 3 73 -29 157 -75 33 -18 182 73 297 181
90 85 97 89 307 189 118 56 294 139 390 186 96 46 186 83 200 84 14 0 70 -15
124 -32z m176 -59 c23 -9 16 -15 -92 -69 l-117 -59 -46 18 -46 18 118 57 c118
58 122 58 183 35z m120 -37 l55 -17 -120 -61 -120 -60 -65 22 -65 22 110 56
c61 31 119 56 130 56 11 0 45 -8 75 -18z m-625 -232 l-280 -136 -42 15 c-24 9
-39 19 -35 23 4 4 128 66 276 137 l269 130 46 -16 46 -16 -280 -137z m365 110
c60 -21 62 -22 39 -34 -13 -7 -142 -70 -286 -140 l-262 -128 -61 23 c-33 12
-58 25 -55 28 7 7 548 271 556 272 3 0 34 -10 69 -21z m-702 -235 l37 -15 -30
-13 c-72 -31 -295 -100 -301 -93 -4 4 -5 9 -3 11 8 7 244 125 252 125 4 1 24
-6 45 -15z m111 -46 c29 -11 48 -24 44 -29 -4 -4 -82 -28 -172 -53 -159 -44
-164 -45 -202 -29 -21 8 -39 18 -39 22 0 5 287 107 311 110 4 1 30 -9 58 -21z
m75 -70 c7 -47 40 -927 35 -932 -2 -3 -86 10 -187 27 l-182 31 -1 61 c0 33 -6
213 -13 400 -7 187 -12 341 -10 343 2 3 331 99 346 101 4 1 9 -14 12 -31z
m-491 -15 c9 -8 -142 -92 -165 -93 -35 0 -16 16 65 57 90 46 91 46 100 36z
m75 -32 l34 -17 -93 -43 c-57 -26 -101 -40 -113 -37 -29 8 -53 27 -41 32 6 2
42 22 80 44 79 45 87 46 133 21z m-418 -140 c0 -4 -29 -35 -64 -70 -48 -47
-69 -62 -82 -57 -15 6 -6 18 51 76 39 40 73 66 81 63 8 -3 14 -8 14 -12z m121
-351 c-6 -102 -11 -205 -11 -228 l0 -42 -49 0 c-56 0 -50 -16 -72 170 l-11 95
74 126 c87 150 85 154 69 -121z m1014 140 c-3 -5 -12 -10 -20 -10 -8 0 -17 5
-20 10 -4 6 5 10 20 10 15 0 24 -4 20 -10z m75 -22 c0 -12 -14 -10 -28 4 -19
19 -14 29 8 16 11 -7 20 -16 20 -20z m-140 -7 c0 -5 -7 -14 -15 -21 -16 -14
-18 -10 -9 14 6 17 24 22 24 7z m170 -48 c0 -20 -3 -24 -11 -16 -7 7 -9 19 -6
27 10 24 17 19 17 -11z m-87 -10 c9 -9 -13 -34 -24 -27 -14 8 -11 34 4 34 8 0
17 -3 20 -7z m-103 -28 c0 -8 -4 -17 -10 -20 -6 -4 -10 5 -10 20 0 15 4 24 10
20 6 -3 10 -12 10 -20z m174 -39 c-6 -16 -24 -23 -24 -8 0 10 22 33 27 28 2
-2 1 -11 -3 -20z m-1243 -128 c15 -136 17 -132 -47 -140 -28 -3 -29 -3 -51 92
-12 52 -22 98 -23 101 0 7 91 69 101 69 4 0 13 -55 20 -122z m1103 116 c9 -3
16 -12 16 -20 0 -12 -4 -12 -20 -2 -30 19 -27 34 4 22z m91 -24 c4 -6 -5 -10
-20 -10 -15 0 -24 4 -20 10 3 6 12 10 20 10 8 0 17 -4 20 -10z m350 -82 c47
-22 83 -43 81 -45 -2 -3 -53 19 -113 47 -59 28 -96 49 -81 46 15 -4 66 -25
113 -48z m-1640 -129 c6 -35 5 -36 -40 -53 -25 -10 -48 -17 -50 -15 -8 9 -75
192 -71 196 2 3 31 13 63 23 l58 18 17 -67 c9 -36 20 -82 23 -102z m-265 98
c0 -2 -10 -12 -22 -23 l-23 -19 19 23 c18 21 26 27 26 19z m2040 -38 c0 -4 -7
-6 -15 -3 -8 4 -15 10 -15 15 0 4 7 6 15 3 8 -4 15 -10 15 -15z m175 -76 c80
-38 141 -69 136 -71 -8 -3 -288 122 -300 134 -17 16 40 -6 164 -63z m-1267
-87 c1 -2 10 -42 18 -88 l16 -85 -42 -149 -42 -149 -81 -83 c-45 -46 -90 -88
-100 -93 -15 -8 -30 -3 -73 27 l-55 38 99 100 99 101 42 149 c35 125 41 158
36 199 l-7 50 43 -7 c24 -4 45 -8 47 -10z m1479 -22 c-7 -7 -57 18 -57 28 0 5
14 1 31 -7 17 -9 29 -19 26 -21z m-1177 -31 c6 -5 49 -287 45 -291 -2 -2 -28
12 -59 32 -46 29 -56 41 -56 63 0 16 -4 42 -9 59 -5 17 -12 59 -16 93 l-7 63
48 -8 c27 -3 51 -9 54 -11z m610 -63 c33 -17 60 -33 60 -35 0 -9 -181 -265
-187 -265 -5 0 -110 57 -121 66 -4 3 179 264 185 264 2 0 30 -14 63 -30z m400
-221 c0 -6 -164 -244 -180 -263 -9 -9 -130 53 -130 67 0 4 41 66 90 137 l91
129 64 -31 c36 -18 65 -35 65 -39z m-965 -54 c-9 -48 -20 -50 -77 -15 -29 18
-55 34 -56 36 -2 1 1 19 8 38 l12 36 59 -33 c56 -30 60 -34 54 -62z m-73 -27
c29 -17 54 -32 55 -33 1 0 -12 -49 -29 -107 -17 -59 -35 -105 -39 -102 -5 3
-7 -1 -4 -8 3 -7 -37 -55 -92 -110 l-98 -98 -58 41 -57 41 91 99 c51 54 95 99
98 99 4 0 15 -6 26 -13 49 -34 75 -49 75 -44 0 3 -17 16 -37 29 -20 13 -41 26
-46 30 -11 7 42 208 55 208 4 0 31 -14 60 -32z"/>
<path d="M1656 3354 c-9 -26 -14 -49 -12 -51 2 -2 11 17 20 43 9 26 14 49 12
51 -2 2 -11 -17 -20 -43z"/>
<path d="M1590 3160 c-6 -11 -8 -20 -6 -20 3 0 10 9 16 20 6 11 8 20 6 20 -3
0 -10 -9 -16 -20z"/>
<path d="M1670 3166 c0 -2 8 -10 18 -17 15 -13 16 -12 3 4 -13 16 -21 21 -21
13z"/>
</g>
</svg>
